<svg id="Capa_1" enable-background="new 0 0 505.13 505.13" height="512" viewBox="0 0 505.13 505.13" width="512" xmlns="http://www.w3.org/2000/svg"><g><path d="m282.547 87.583h120v30h-120z"/><path d="m282.547 147.583h120v30h-120z"/><path d="m282.547 207.583h75v30h-75z"/><path d="m340.129 0c-44.073 0-85.508 17.163-116.672 48.328-54.663 54.661-61.728 135.98-27.446 197.151l-46.8 46.801-21.214-21.214-106.065 106.067c-29.242 29.242-29.242 76.823 0 106.065 29.241 29.241 76.822 29.242 106.065 0l106.066-106.065-21.214-21.214 46.801-46.8c24.317 13.628 51.839 20.882 80.479 20.882 91.187 0 165.001-73.795 165.001-165 0-91.189-73.796-165.001-165.001-165.001zm-148.491 377.133-84.854 84.853c-17.546 17.546-46.096 17.544-63.64 0-17.545-17.546-17.545-46.094 0-63.64l84.852-84.853c17.036 17.036 53.667 53.666 63.642 63.64zm42.904-85.332-42.905 42.905-21.213-21.213 42.905-42.905c6.608 7.882 13.322 14.598 21.213 21.213zm201.047-31.341c-25.498 25.498-59.399 39.541-95.46 39.541-74.584 0-135-60.418-135-135 0-36.061 14.043-69.962 39.541-95.46 52.759-52.759 138.154-52.765 190.919 0 52.759 52.759 52.764 138.154 0 190.919z"/></g></svg>